<?xml version="1.0" standalone="no"?>
<!DOCTYPE svg PUBLIC "-//W3C//DTD SVG 20010904//EN"
 "http://www.w3.org/TR/2001/REC-SVG-20010904/DTD/svg10.dtd">
<svg version="1.0" xmlns="http://www.w3.org/2000/svg"
 width="250.000000pt" height="271.000000pt" viewBox="0 0 250.000000 271.000000"
 preserveAspectRatio="xMidYMid meet">
<metadata>
Created by potrace 1.14, written by Peter Selinger 2001-2017
</metadata>
<g transform="translate(0.000000,271.000000) scale(0.100000,-0.100000)"
fill="#000000" stroke="none">
<path d="M1020 2530 c0 -5 -24 -10 -53 -10 -30 0 -89 -3 -131 -7 -69 -5 -79
-9 -87 -30 -9 -23 -29 -32 -29 -12 0 13 -40 8 -42 -6 -3 -14 -46 -35 -74 -35
-13 0 -24 -5 -24 -11 0 -8 -5 -8 -15 1 -13 11 -15 9 -15 -13 0 -23 -5 -25 -55
-32 -30 -3 -55 -11 -55 -16 0 -5 -16 -9 -36 -9 -29 0 -34 -3 -26 -13 9 -10 0
-25 -38 -62 -49 -48 -50 -51 -50 -109 0 -48 4 -64 22 -83 19 -20 20 -25 8 -34
-13 -8 -13 -10 0 -19 19 -12 20 -184 2 -202 -21 -21 -14 -70 15 -100 21 -22
24 -31 15 -40 -7 -7 -12 -40 -12 -75 0 -80 19 -103 85 -103 28 0 45 -4 45 -12
0 -9 3 -9 12 0 7 7 19 12 27 12 8 0 27 12 42 26 20 20 38 27 67 27 30 0 41 5
48 21 5 11 16 20 25 18 16 -2 63 38 65 55 5 49 36 103 59 103 6 0 22 11 35 25
13 14 34 25 47 25 14 0 31 7 39 15 32 32 183 5 184 -32 0 -7 6 -13 13 -13 12
0 37 -44 37 -67 0 -7 -5 -13 -11 -13 -8 0 -7 -5 1 -15 11 -13 9 -20 -13 -43
-15 -16 -27 -40 -27 -53 0 -30 -28 -59 -56 -59 -29 0 -74 -23 -74 -37 0 -7 -7
-13 -15 -13 -8 0 -15 -4 -15 -10 0 -5 -10 -10 -23 -10 -13 0 -33 -11 -46 -24
-19 -20 -34 -24 -124 -30 -82 -5 -113 -12 -159 -34 -32 -15 -58 -32 -58 -39 0
-7 -19 -13 -47 -15 -44 -3 -48 -5 -51 -30 -2 -19 -9 -28 -21 -28 -31 0 -61
-42 -61 -86 0 -43 -14 -64 -40 -64 -9 0 -25 -9 -35 -20 -10 -12 -25 -18 -32
-16 -9 4 -13 -6 -13 -39 0 -29 -9 -60 -25 -89 -14 -25 -25 -55 -25 -68 0 -15
-16 -39 -40 -63 -32 -31 -40 -46 -40 -75 0 -20 6 -42 12 -48 10 -10 10 -17 0
-32 -15 -24 -16 -66 -2 -75 6 -3 10 -16 10 -28 1 -12 9 -40 20 -62 11 -22 19
-47 20 -56 0 -20 41 -59 63 -59 11 0 17 -11 19 -37 2 -28 9 -41 26 -49 13 -6
29 -17 35 -23 7 -7 51 -11 113 -11 58 0 106 -4 109 -10 3 -5 44 -10 90 -10 46
0 87 -4 90 -10 3 -5 37 -10 75 -10 38 0 72 5 75 10 3 6 17 10 31 10 13 0 24 5
24 10 0 6 6 10 13 10 8 0 22 9 32 20 10 11 28 20 40 20 25 0 75 22 75 33 0 4
5 7 12 7 15 0 68 50 68 65 0 6 10 19 23 30 51 45 104 58 127 30 7 -8 23 -15
35 -15 15 0 34 -14 54 -39 31 -39 40 -71 21 -71 -18 0 -11 -15 13 -25 15 -7
23 -20 25 -42 2 -18 8 -33 14 -33 6 0 25 -11 42 -23 17 -13 48 -27 69 -30 22
-3 54 -18 72 -32 29 -22 44 -25 109 -25 41 0 78 4 81 10 3 5 23 10 44 10 20 0
46 7 57 15 10 8 27 15 37 15 26 0 107 39 107 50 0 6 6 10 13 10 8 0 19 11 25
25 6 14 16 25 22 25 5 0 10 7 10 15 0 8 5 15 10 15 12 0 50 37 50 48 0 4 18
26 40 47 22 21 40 44 40 49 0 5 11 21 24 35 31 33 42 136 17 151 -14 8 -13 11
6 29 12 12 31 21 43 21 27 0 25 22 -5 50 -14 13 -25 32 -25 42 0 26 -29 22
-39 -5 -5 -13 -16 -29 -25 -36 -10 -9 -16 -29 -16 -59 0 -31 -5 -49 -17 -58
-23 -17 -90 -18 -96 -1 -4 10 -7 10 -18 0 -21 -20 -59 -15 -95 12 -18 14 -37
25 -43 25 -6 0 -11 13 -11 28 0 23 -7 31 -34 42 -33 12 -34 15 -40 81 -4 38
-14 81 -22 97 -9 18 -14 59 -14 124 0 86 -2 97 -19 103 -25 8 -32 38 -15 70 8
16 15 62 15 111 1 47 6 87 11 90 11 7 10 51 -2 59 -14 8 -13 148 1 162 8 8 7
17 -2 34 -7 13 -15 31 -19 38 -4 8 -21 22 -38 30 -31 16 -46 41 -42 75 3 32
-41 105 -71 118 -29 13 -37 32 -19 43 13 8 13 78 1 91 -6 5 -11 29 -13 54 l-3
45 -36 -3 c-23 -2 -40 2 -48 12 -19 23 -7 33 48 40 28 4 53 11 56 17 11 16
-24 79 -48 88 -12 5 -30 18 -40 29 -10 11 -33 23 -52 26 -18 4 -36 13 -39 21
-3 8 -12 15 -19 15 -8 0 -22 9 -32 20 -10 11 -25 20 -34 20 -9 0 -29 7 -45 15
-15 8 -34 15 -41 15 -7 0 -18 7 -25 15 -7 8 -27 15 -44 15 -17 0 -44 7 -60 15
-33 17 -206 22 -206 5z m-200 -1195 c0 -9 9 -15 21 -15 15 0 19 5 15 15 -4 10
1 15 15 15 11 0 27 -7 35 -15 9 -8 26 -15 39 -15 13 0 26 -4 29 -9 3 -5 18
-12 33 -16 15 -3 33 -15 41 -26 8 -11 24 -24 37 -29 13 -5 29 -21 37 -36 7
-15 27 -35 43 -44 17 -9 34 -26 40 -38 5 -12 13 -22 17 -22 5 0 8 -7 8 -15 0
-9 7 -18 15 -21 8 -4 15 -14 15 -24 0 -11 5 -22 10 -25 13 -8 13 -48 -1 -62
-8 -8 -7 -17 3 -32 11 -18 11 -23 -1 -31 -10 -5 -16 -31 -19 -74 -2 -36 -8
-66 -13 -66 -18 0 -8 -27 21 -55 25 -24 30 -37 30 -76 0 -56 -11 -67 -45 -45
-13 9 -35 16 -48 16 -14 0 -30 7 -37 15 -7 8 -24 15 -38 15 -14 0 -39 10 -56
23 -32 24 -63 40 -81 42 -19 2 -184 87 -196 101 -6 8 -19 14 -28 14 -21 0 -86
35 -111 60 -11 11 -24 20 -30 20 -16 0 -12 96 5 110 8 7 15 26 15 42 0 18 6
31 18 35 44 15 70 65 40 75 -9 3 -4 16 15 41 15 19 27 47 27 61 0 14 4 27 9
30 5 3 7 15 4 26 -3 11 0 27 7 35 16 20 60 20 60 0z"/>
</g>
</svg>
