<?xml version="1.0" standalone="no"?>
<!DOCTYPE svg PUBLIC "-//W3C//DTD SVG 20010904//EN"
 "http://www.w3.org/TR/2001/REC-SVG-20010904/DTD/svg10.dtd">
<svg version="1.0" xmlns="http://www.w3.org/2000/svg"
 width="64.000000pt" height="73.000000pt" viewBox="0 0 64.000000 73.000000"
 preserveAspectRatio="xMidYMid meet">
<metadata>
Created by potrace 1.14, written by Peter Selinger 2001-2017
</metadata>
<g transform="translate(0.000000,73.000000) scale(0.100000,-0.100000)"
fill="#000000" stroke="none">
<path d="M339 666 c-2 -2 -26 -7 -53 -10 -57 -6 -121 -46 -149 -93 -10 -18
-22 -33 -26 -33 -9 0 -29 -49 -36 -90 -9 -48 13 -211 31 -231 8 -8 14 -20 14
-25 0 -18 84 -95 119 -110 20 -9 65 -16 101 -17 72 -2 119 15 160 57 14 14 38
39 54 55 24 25 28 34 22 65 -4 19 -14 40 -23 45 -19 10 -58 -1 -83 -24 -8 -7
-35 -14 -60 -15 -25 0 -63 -2 -84 -3 -36 -2 -40 0 -51 33 -8 22 -18 34 -29 34
-13 -1 -16 8 -16 43 0 42 1 45 23 38 46 -14 75 -17 81 -6 4 6 32 11 62 11 50
0 55 2 49 19 -5 17 1 21 42 27 26 3 54 11 61 17 10 8 16 7 22 -2 5 -10 9 -10
15 -2 4 7 0 23 -9 36 -9 13 -12 26 -7 30 15 9 -19 65 -45 75 -13 5 -24 17 -24
25 0 21 -75 54 -121 55 -20 0 -38 -2 -40 -4z"/>
</g>
</svg>
