<?xml version="1.0" standalone="no"?>
<!DOCTYPE svg PUBLIC "-//W3C//DTD SVG 20010904//EN"
 "http://www.w3.org/TR/2001/REC-SVG-20010904/DTD/svg10.dtd">
<svg version="1.0" xmlns="http://www.w3.org/2000/svg"
 width="250.000000pt" height="271.000000pt" viewBox="0 0 250.000000 271.000000"
 preserveAspectRatio="xMidYMid meet">
<metadata>
Created by potrace 1.14, written by Peter Selinger 2001-2017
</metadata>
<g transform="translate(0.000000,271.000000) scale(0.100000,-0.100000)"
fill="#000000" stroke="none">
<path d="M1155 2570 c-10 -11 -28 -20 -40 -20 -12 0 -32 -9 -45 -20 -13 -11
-30 -20 -39 -20 -9 0 -24 9 -34 20 -20 24 -77 28 -77 5 0 -9 -11 -20 -24 -26
-13 -6 -27 -20 -29 -31 -5 -18 -11 -19 -54 -13 -43 6 -51 4 -72 -19 -14 -14
-33 -26 -43 -26 -21 0 -58 -22 -106 -62 -18 -15 -42 -28 -53 -28 -20 0 -23 -4
-33 -52 -4 -18 -13 -28 -24 -28 -19 0 -82 -53 -82 -68 0 -5 -9 -12 -20 -15
-12 -3 -20 -14 -20 -25 0 -12 -18 -36 -41 -56 -37 -31 -40 -37 -28 -52 14 -17
6 -27 -54 -69 -10 -7 -20 -30 -24 -51 -3 -22 -14 -46 -24 -54 -11 -9 -21 -30
-24 -48 -2 -18 -13 -49 -25 -69 -12 -21 -24 -67 -30 -116 -5 -45 -14 -104 -18
-130 -14 -76 4 -331 26 -375 5 -9 15 -46 21 -81 15 -78 53 -153 85 -171 24
-12 51 -6 41 10 -9 15 7 40 25 40 10 0 25 -11 34 -25 13 -19 14 -29 4 -49 -8
-20 -8 -29 2 -41 7 -9 19 -14 26 -11 6 2 20 -1 29 -8 15 -11 16 -13 1 -26 -14
-11 -19 -10 -30 5 -14 19 -36 13 -36 -11 0 -8 -4 -14 -10 -14 -5 0 -12 -11
-16 -25 -9 -36 27 -99 102 -177 35 -36 64 -71 64 -77 0 -6 12 -17 27 -25 16
-9 53 -38 83 -66 34 -32 64 -50 79 -50 39 0 90 -22 97 -42 4 -12 20 -19 56
-24 29 -4 57 -15 68 -26 14 -16 28 -18 81 -15 48 2 58 5 41 11 -17 6 -21 14
-16 28 3 12 1 24 -6 28 -15 9 -5 30 14 30 7 0 19 -11 26 -25 7 -14 20 -25 29
-25 14 1 14 2 -1 14 -17 12 -17 14 1 30 13 12 27 15 45 10 22 -5 26 -3 26 15
0 13 -9 25 -22 30 -13 5 -33 23 -46 40 -12 17 -29 31 -36 31 -21 0 -80 32
-101 55 -47 52 -75 88 -75 95 0 15 -100 174 -126 201 -13 14 -24 33 -24 42 0
9 -6 17 -14 17 -15 0 -26 21 -26 50 0 11 -9 24 -19 29 -19 11 -27 75 -36 301
-3 80 -3 80 -21 73 -12 -4 -15 -2 -12 8 3 8 11 14 18 14 8 0 18 17 23 40 12
61 -1 248 -22 300 -19 46 -31 126 -32 220 l-2 100 39 5 c51 7 61 14 85 61 11
22 31 45 44 51 13 6 26 22 30 35 7 29 -2 44 -14 24 -16 -26 -33 -1 -26 39 6
33 3 41 -20 63 -23 20 -24 25 -11 30 16 6 27 -2 81 -53 25 -24 37 -25 77 -4
16 8 50 17 75 19 24 1 49 9 56 18 25 30 127 29 202 -3 37 -16 70 -24 115 -26
25 -2 55 -4 68 -5 13 0 34 9 47 21 l24 23 35 -29 c30 -25 35 -34 30 -61 -6
-41 18 -79 62 -98 24 -10 47 -35 79 -84 25 -39 49 -71 53 -71 4 0 23 -24 42
-53 19 -28 46 -64 60 -78 51 -53 70 -81 70 -104 0 -14 22 -50 54 -88 l54 -63
1 -160 c1 -87 6 -181 12 -209 5 -27 14 -66 18 -86 4 -19 4 -44 0 -55 -4 -10
-10 -32 -14 -47 -3 -15 -15 -35 -26 -45 -12 -9 -35 -46 -52 -82 -16 -36 -39
-76 -49 -89 -10 -13 -18 -37 -18 -52 0 -16 -9 -38 -19 -48 -11 -11 -27 -34
-36 -51 -8 -16 -33 -41 -54 -55 -22 -13 -42 -29 -46 -35 -3 -5 -13 -10 -21
-10 -8 0 -32 -11 -52 -25 -30 -21 -49 -25 -107 -25 -73 0 -88 -5 -97 -31 -4
-11 -32 -19 -104 -28 -55 -7 -107 -14 -116 -17 -27 -8 -22 -24 7 -24 14 0 25
-4 25 -10 0 -5 -4 -10 -10 -10 -5 0 -10 -4 -10 -10 0 -5 7 -10 16 -10 12 0 15
7 12 30 -4 27 -3 29 21 23 50 -12 81 -33 87 -61 3 -15 12 -39 20 -54 8 -16 17
-47 20 -70 9 -80 10 -81 68 -74 179 22 233 31 246 41 8 7 37 18 64 26 43 12
51 19 67 57 10 23 25 42 33 42 9 0 20 9 26 20 6 11 26 22 48 26 48 9 61 20 54
46 -4 18 -2 20 17 15 15 -4 29 1 42 14 10 10 22 19 25 19 15 0 94 77 94 92 0
10 4 18 10 18 18 0 71 104 65 128 -5 19 -1 22 21 22 18 0 38 12 62 37 34 36
34 38 29 102 -2 37 -8 74 -12 84 -6 15 -4 17 17 12 59 -15 83 95 61 279 -5 39
-14 71 -21 74 -7 2 -12 21 -12 44 0 35 -2 39 -15 28 -19 -16 -32 -6 -17 13 13
15 19 325 7 372 -12 49 -46 117 -80 160 -18 22 -35 49 -39 61 -3 11 -15 29
-25 40 -10 11 -28 40 -40 65 -37 76 -66 119 -78 119 -7 0 -13 5 -13 11 0 17
-153 165 -177 173 -12 4 -23 16 -26 26 -4 14 -14 20 -34 20 -15 0 -34 4 -42 9
-8 5 -28 5 -48 -1 -24 -7 -39 -6 -46 1 -6 6 -17 11 -25 11 -8 0 -36 16 -62 35
-37 27 -57 35 -91 35 -63 0 -112 16 -139 45 -13 14 -31 25 -41 25 -10 0 -21 5
-24 10 -3 6 -34 10 -69 10 -50 0 -67 -4 -81 -20z"/>
</g>
</svg>
