<?xml version="1.0" standalone="no"?>
<!DOCTYPE svg PUBLIC "-//W3C//DTD SVG 20010904//EN"
 "http://www.w3.org/TR/2001/REC-SVG-20010904/DTD/svg10.dtd">
<svg version="1.0" xmlns="http://www.w3.org/2000/svg"
 width="250.000000pt" height="271.000000pt" viewBox="0 0 250.000000 271.000000"
 preserveAspectRatio="xMidYMid meet">
<metadata>
Created by potrace 1.14, written by Peter Selinger 2001-2017
</metadata>
<g transform="translate(0.000000,271.000000) scale(0.100000,-0.100000)"
fill="#000000" stroke="none">
<path d="M1140 2431 l0 -41 -62 -2 c-35 0 -70 0 -78 0 -51 6 -73 3 -86 -10
-14 -14 -13 -17 9 -35 28 -21 40 -52 29 -71 -6 -9 -21 -10 -57 -3 -30 6 -56 6
-67 0 -9 -5 -37 -9 -62 -9 -35 0 -48 5 -56 20 -12 22 -40 26 -58 8 -19 -19
-14 -42 13 -68 29 -27 32 -45 9 -54 -13 -5 -14 -9 -4 -21 7 -8 9 -22 6 -31 -6
-15 -9 -15 -33 1 l-26 18 -55 -57 c-45 -47 -53 -60 -46 -79 9 -26 9 -78 1
-234 -4 -90 -3 -114 9 -124 8 -6 14 -15 14 -20 0 -5 14 -28 30 -51 17 -22 30
-50 30 -60 0 -24 52 -120 86 -161 13 -16 24 -32 24 -36 0 -5 11 -20 25 -35 22
-24 30 -26 105 -26 80 0 81 0 91 -29 11 -32 45 -51 93 -51 25 0 42 -9 65 -32
17 -17 31 -35 31 -40 0 -41 201 -78 308 -56 36 7 48 5 72 -12 15 -11 37 -20
48 -20 13 0 31 -16 49 -42 24 -36 38 -46 90 -63 l61 -20 4 -50 c3 -38 -1 -56
-16 -78 -17 -24 -18 -32 -8 -60 17 -48 15 -65 -12 -82 -16 -11 -35 -14 -63 -9
-28 4 -51 1 -74 -10 -73 -34 -203 -47 -213 -20 -8 22 -8 24 8 24 17 0 48 39
41 51 -7 11 -87 -2 -110 -17 -24 -17 -113 -10 -167 13 -32 13 -48 14 -100 5
-103 -19 -101 -19 -107 5 -8 31 -69 100 -108 123 -18 11 -33 26 -33 35 0 39
-32 77 -85 100 -29 13 -56 29 -60 34 -3 6 -15 11 -26 11 -11 0 -22 8 -26 18
-3 9 -14 36 -25 60 -23 49 -52 56 -87 18 -19 -20 -20 -27 -10 -49 9 -20 8 -34
-4 -69 -9 -23 -19 -79 -22 -124 l-6 -81 35 -42 c20 -24 36 -47 36 -52 0 -5 6
-9 13 -9 6 0 40 -14 74 -32 60 -32 63 -34 57 -64 -6 -33 12 -57 22 -30 12 31
24 15 22 -28 -2 -37 2 -49 23 -69 17 -15 29 -39 33 -69 5 -33 17 -56 41 -81
19 -20 35 -41 35 -46 0 -6 8 -15 18 -20 27 -15 201 -16 252 -1 29 8 71 10 117
6 43 -3 84 -1 100 5 21 8 42 7 80 -2 52 -12 52 -12 92 22 21 19 51 42 65 52
14 10 26 27 26 37 0 11 17 38 37 61 l37 41 -24 18 c-15 12 -21 23 -17 35 9 21
33 14 29 -9 -2 -12 6 -16 35 -17 61 -2 61 -2 153 41 9 4 16 24 18 49 3 36 7
43 35 55 18 7 40 22 49 32 61 66 98 110 98 117 0 4 11 24 24 45 13 20 27 59
31 86 4 27 16 61 27 76 26 36 21 81 -11 96 -36 18 -42 35 -24 65 16 27 16 28
-16 58 -17 16 -41 33 -51 36 -10 3 -21 14 -24 23 -3 10 -32 43 -65 74 -55 54
-61 57 -96 51 -38 -6 -38 -6 -32 24 5 26 0 37 -30 68 -20 20 -51 42 -70 49
-37 13 -89 85 -67 93 6 2 18 9 27 16 22 18 11 76 -17 87 -13 4 -30 20 -40 34
-16 26 -49 45 -163 100 -29 14 -53 30 -53 35 0 12 -40 61 -50 61 -3 0 -14 -16
-24 -35 -22 -40 -14 -39 -171 -36 l-120 2 -27 32 c-33 37 -36 69 -8 97 11 11
20 31 20 45 0 30 7 33 86 38 34 3 67 7 73 11 6 4 41 12 77 17 59 8 70 7 118
-16 29 -14 71 -25 93 -25 36 0 45 -6 101 -66 34 -36 62 -71 62 -78 0 -7 9 -21
20 -31 12 -10 20 -31 20 -49 1 -34 30 -73 76 -100 16 -10 39 -33 52 -52 12
-19 29 -34 36 -34 8 0 21 -3 30 -6 10 -4 27 6 47 25 17 17 34 31 39 31 17 0
60 70 61 102 1 18 4 47 8 63 4 17 2 46 -6 68 -7 23 -11 70 -9 118 3 70 1 81
-15 90 -26 14 -59 81 -56 115 2 27 0 29 -30 26 -18 -2 -33 1 -33 7 0 6 -24 22
-53 35 -39 19 -62 24 -90 19 -32 -5 -38 -3 -48 21 -10 22 -18 26 -55 26 -35 0
-46 4 -55 23 -18 34 -27 37 -117 37 -46 0 -93 5 -105 12 -12 7 -47 13 -77 14
-30 1 -67 5 -82 9 -27 7 -28 6 -28 -34z"/>
</g>
</svg>
