<?xml version="1.0" standalone="no"?>
<!DOCTYPE svg PUBLIC "-//W3C//DTD SVG 20010904//EN"
 "http://www.w3.org/TR/2001/REC-SVG-20010904/DTD/svg10.dtd">
<svg version="1.0" xmlns="http://www.w3.org/2000/svg"
 width="168.000000pt" height="239.000000pt" viewBox="0 0 168.000000 239.000000"
 preserveAspectRatio="xMidYMid meet">
<metadata>
Created by potrace 1.14, written by Peter Selinger 2001-2017
</metadata>
<g transform="translate(0.000000,239.000000) scale(0.100000,-0.100000)"
fill="#000000" stroke="none">
<path d="M601 2208 c3 -26 -2 -38 -20 -47 -16 -9 -18 -8 -14 12 3 12 -7 3 -21
-22 -14 -23 -26 -47 -26 -51 0 -4 -9 -10 -20 -13 -35 -9 -50 -89 -29 -156 5
-19 -31 -29 -113 -30 -62 -1 -68 -3 -93 -33 -15 -18 -37 -37 -49 -43 -11 -6
-27 -28 -34 -50 -17 -51 -3 -85 58 -146 26 -25 56 -63 66 -85 10 -21 22 -42
27 -46 6 -3 8 -40 5 -85 -3 -44 -2 -127 2 -185 6 -87 12 -114 35 -156 24 -44
27 -58 20 -94 -4 -24 -11 -117 -16 -208 -4 -91 -11 -184 -14 -206 -4 -26 -3
-44 4 -48 6 -4 11 -15 11 -25 0 -30 37 -105 64 -131 15 -13 26 -29 26 -37 0
-7 5 -13 11 -13 6 0 32 -22 57 -50 44 -49 46 -50 104 -50 32 0 58 -3 58 -7 0
-11 50 -33 76 -33 13 0 24 -8 27 -20 5 -21 15 -23 127 -23 73 0 179 14 186 24
3 5 26 6 51 2 l46 -6 -7 35 c-5 27 -2 41 16 64 37 47 48 56 62 51 17 -7 56 19
56 36 0 7 28 40 62 75 51 51 62 69 64 100 2 20 6 63 10 95 6 57 6 58 -31 92
l-37 35 -88 -3 c-68 -2 -94 -7 -109 -21 -10 -9 -32 -21 -47 -25 -21 -5 -32
-17 -40 -42 -10 -30 -15 -34 -48 -34 -20 0 -40 -6 -45 -13 -8 -14 -117 -24
-158 -15 -20 5 -23 11 -23 56 0 42 -5 56 -27 79 -15 15 -34 28 -44 28 -9 0
-19 7 -23 15 -3 8 -14 15 -24 15 -12 0 -23 13 -31 38 -8 20 -29 55 -47 76 -19
22 -34 48 -34 58 0 11 -7 18 -20 18 -31 0 -24 17 13 35 43 20 82 93 72 133
-10 39 -27 191 -26 232 4 151 7 207 13 216 4 6 2 24 -6 40 -8 16 -16 47 -20
70 -5 34 -2 46 17 67 l22 26 22 -23 c15 -15 39 -26 72 -30 43 -6 54 -3 71 14
18 18 29 20 91 15 114 -9 139 -35 77 -83 -12 -10 -22 -11 -37 -3 -30 17 -51
-20 -51 -90 0 -57 8 -69 44 -69 21 0 146 126 146 147 0 24 18 43 42 43 31 0
98 32 109 52 7 12 8 43 4 79 -7 57 -8 58 -53 81 -55 27 -157 31 -210 9 -25
-10 -36 -11 -45 -2 -23 23 -177 2 -177 -25 0 -8 -11 -20 -25 -26 -14 -6 -25
-15 -25 -19 0 -4 -13 -17 -29 -28 -28 -20 -29 -20 -24 -2 4 14 -1 20 -18 23
-18 2 -25 12 -31 42 -10 45 -5 54 18 35 14 -12 15 -7 11 48 -4 46 -2 65 9 74
20 16 17 56 -5 78 -26 26 -41 55 -41 80 0 12 -7 21 -15 21 -9 0 -15 -6 -14
-12z"/>
<path d="M826 1371 c-13 -14 -13 -22 -2 -54 7 -21 18 -43 24 -49 7 -7 12 -27
12 -45 0 -22 6 -36 20 -43 16 -9 22 -6 35 19 31 62 11 150 -41 173 -30 14 -35
14 -48 -1z"/>
</g>
</svg>
